<?xml version="1.0" encoding="UTF-8"?>
<svg width="532px" height="447px" viewBox="0 0 532 447" version="1.1" xmlns="http://www.w3.org/2000/svg" xmlns:xlink="http://www.w3.org/1999/xlink">
    <!-- Generator: Sketch 3.8.1 (29687) - http://www.bohemiancoding.com/sketch -->
    <title>bigdata</title>
    <desc>Created with Sketch.</desc>
    <defs></defs>
    <g id="Page-1" stroke="none" stroke-width="1" fill="none" fill-rule="evenodd">
        <g id="bigdata">
            <g id="upload" transform="translate(256.000000, 120.000000)" fill="#D0011B">
                <polygon id="Triangle3" points="7.69857161 0 15.3971432 10.7313422 0 10.7313422"></polygon>
                <polygon id="Triangle2" points="7.69857161 23.5 15.3971432 34.2313422 0 34.2313422"></polygon>
                <polygon id="Triangle1" points="7.69857161 47 15.3971432 57.7313422 0 57.7313422"></polygon>
            </g>
            <g id="cloud3" transform="translate(315.000000, 31.571429)">
                <path d="M68.1586735,4.5112782 C57.0219388,4.5112782 47.3163265,10.9443609 42.0298469,20.5082707 C40.2040816,19.8721805 38.2568878,19.5157895 36.2316327,19.5157895 C27.284949,19.5157895 19.8170918,26.2466165 17.9826531,35.2330827 C10.3760204,39.1353383 5.08086735,47.4406015 5.08086735,57.0270677 C5.08086735,70.3218045 15.2418367,81.2030075 27.6665816,81.2030075 L74.394898,81.2030075 C74.6594388,81.2030075 74.9109694,81.1714286 75.1755102,81.162406 C75.4357143,81.1714286 75.6915816,81.2030075 75.9561224,81.2030075 L94.647449,81.2030075 C106.20051,81.2030075 115.663265,71.075188 115.663265,58.6962406 C115.663265,47.7338346 108.238776,38.5533835 98.5114796,36.5909774 C98.2903061,18.8345865 84.7943878,4.5112782 68.1586735,4.5112782 Z" id="Shape" fill="#368CD6"></path>
                <path d="M94.6344388,85.7142857 L75.9431122,85.7142857 C75.669898,85.7142857 75.3966837,85.6962406 75.1278061,85.6781955 C74.9239796,85.6962406 74.6594388,85.7142857 74.3862245,85.7142857 L27.6622449,85.7142857 C12.817602,85.7142857 0.739795918,72.843609 0.739795918,57.0315789 C0.739795918,46.8270677 5.98290816,37.3082707 14.2530612,32.206015 C17.2280612,22.1233083 26.1617347,15.0045113 36.2229592,15.0045113 C37.5066327,15.0045113 38.7903061,15.1172932 40.0566327,15.3473684 C46.5443878,5.80150376 57.0306122,3.19744231e-14 68.1586735,3.19744231e-14 C85.9479592,3.19744231e-14 100.788265,14.5488722 102.653061,33.0766917 C112.879082,36.712782 120,46.9669173 120,58.6962406 C120,73.5924812 108.620408,85.7142857 94.6344388,85.7142857 L94.6344388,85.7142857 Z M74.9586735,76.6511278 L75.7653061,76.6781955 L94.6344388,76.6917293 C103.83699,76.6917293 111.326531,68.6165414 111.326531,58.6962406 C111.326531,50.0481203 105.589031,42.6180451 97.6831633,41.0165414 L94.2181122,40.3172932 L94.1704082,36.6496241 C93.9839286,21.4150376 82.3181122,9.02255639 68.1586735,9.02255639 C58.8997449,9.02255639 50.5385204,14.1609023 45.7897959,22.7593985 L44.0160714,25.9669173 L40.6464286,24.7894737 C39.2066327,24.2842105 37.7191327,24.0270677 36.2272959,24.0270677 C29.5487245,24.0270677 23.6594388,29.1383459 22.2239796,36.1714286 L21.7816327,38.3142857 L19.8951531,39.2796992 C13.5244898,42.5503759 9.41326531,49.5157895 9.41326531,57.0315789 C9.41326531,67.8721805 17.6010204,76.6917293 27.6622449,76.6917293 L74.9586735,76.6511278 L74.9586735,76.6511278 Z" id="Shape" fill="#B1D3EF"></path>
            </g>
            <g id="cloud2" transform="translate(93.000000, 42.000000)">
                <path d="M73.8836097,27.4432331 C73.7177296,14.1259398 63.5957908,3.38345865 51.1190051,3.38345865 C42.7664541,3.38345865 35.4872449,8.20827068 31.5223852,15.381203 C30.1530612,14.9041353 28.6926658,14.6368421 27.1737245,14.6368421 C20.4637117,14.6368421 14.8628189,19.6849624 13.4869898,26.424812 C7.78201531,29.3515038 3.81065051,35.5804511 3.81065051,42.7703008 C3.81065051,52.7413534 11.4313776,60.9022556 20.7499362,60.9022556 L55.7961735,60.9022556 C55.9945791,60.9022556 56.183227,60.8785714 56.3816327,60.8718045 C56.5767857,60.8785714 56.7686862,60.9022556 56.9670918,60.9022556 L70.9855867,60.9022556 C79.6503827,60.9022556 86.747449,53.306391 86.747449,44.0221805 C86.747449,35.8003759 81.1790816,28.9150376 73.8836097,27.4432331 L73.8836097,27.4432331 Z" id="Shape" fill="#368CD6"></path>
                <path d="M70.9758291,64.2857143 L56.9573342,64.2857143 C56.7524235,64.2857143 56.5475128,64.2721805 56.3458546,64.2586466 C56.1929847,64.2721805 55.9945791,64.2857143 55.7896684,64.2857143 L20.7466837,64.2857143 C9.61320153,64.2857143 0.554846939,54.6327068 0.554846939,42.7736842 C0.554846939,35.1203008 4.48718112,27.981203 10.6897959,24.1545113 C12.9210459,16.5924812 19.621301,11.2533835 27.1672194,11.2533835 C28.1299745,11.2533835 29.0927296,11.3379699 30.0424745,11.5105263 C34.9082908,4.35112782 42.7729592,0 51.1190051,0 C64.4609694,0 75.591199,10.9116541 76.9897959,24.8075188 C84.6593112,27.5345865 90,35.225188 90,44.0221805 C90,55.1943609 81.4653061,64.2857143 70.9758291,64.2857143 L70.9758291,64.2857143 Z M56.2190051,57.4883459 L56.8239796,57.5086466 L70.9758291,57.518797 C77.8777423,57.518797 83.494898,51.462406 83.494898,44.0221805 C83.494898,37.5360902 79.191773,31.9635338 73.2623724,30.762406 L70.6635842,30.2379699 L70.6278061,27.487218 C70.4879464,16.0612782 61.7385842,6.76691729 51.1190051,6.76691729 C44.1748087,6.76691729 37.9038903,10.6206767 34.3423469,17.0695489 L33.0120536,19.475188 L30.4848214,18.5921053 C29.4049745,18.2131579 28.2893495,18.0203008 27.1704719,18.0203008 C22.1615434,18.0203008 17.7445791,21.8537594 16.6679847,27.1285714 L16.3362245,28.7357143 L14.9213648,29.4597744 C10.1433673,31.912782 7.05994898,37.1368421 7.05994898,42.7736842 C7.05994898,50.9041353 13.2007653,57.518797 20.7466837,57.518797 L56.2190051,57.4883459 L56.2190051,57.4883459 Z" id="Shape" fill="#B1D3EF"></path>
            </g>
            <g id="cloud1" transform="translate(189.000000, 0.000000)">
                <path d="M83.9607143,5.57275542 C70.2035714,5.57275542 58.2142857,13.5195046 51.6839286,25.3337461 C49.4285714,24.5479876 47.0232143,24.1077399 44.5214286,24.1077399 C33.4696429,24.1077399 24.2446429,32.422291 21.9785714,43.5232198 C12.5821429,48.3436533 6.04107143,58.603096 6.04107143,70.4452012 C6.04107143,86.8681115 18.5928571,100.309598 33.9410714,100.309598 L91.6642857,100.309598 C91.9910714,100.309598 92.3017857,100.270588 92.6285714,100.259443 C92.95,100.270588 93.2660714,100.309598 93.5928571,100.309598 L116.682143,100.309598 C130.953571,100.309598 142.642857,87.7987616 142.642857,72.5071207 C142.642857,58.9653251 133.471429,47.6247678 121.455357,45.2006192 C121.182143,23.2662539 104.510714,5.57275542 83.9607143,5.57275542 Z" id="Shape" fill="#368CD6"></path>
                <path d="M116.666071,105.882353 L93.5767857,105.882353 C93.2392857,105.882353 92.9017857,105.860062 92.5696429,105.837771 C92.3178571,105.860062 91.9910714,105.882353 91.6535714,105.882353 L33.9357143,105.882353 C15.5982143,105.882353 0.678571429,89.9832817 0.678571429,70.450774 C0.678571429,57.8452012 7.15535714,46.0866873 17.3714286,39.7839009 C21.0464286,27.3287926 32.0821429,18.5349845 44.5107143,18.5349845 C46.0964286,18.5349845 47.6821429,18.6743034 49.2464286,18.9585139 C57.2607143,7.16656347 70.2142857,0 83.9607143,0 C105.935714,0 124.267857,17.9721362 126.571429,40.8594427 C139.203571,45.3510836 148,58.0179567 148,72.5071207 C148,90.9083591 133.942857,105.882353 116.666071,105.882353 L116.666071,105.882353 Z M92.3607143,94.6866873 L93.3571429,94.7201238 L116.666071,94.7368421 C128.033929,94.7368421 137.285714,84.7616099 137.285714,72.5071207 C137.285714,61.8241486 130.198214,52.6458204 120.432143,50.6674923 L116.151786,49.8037152 L116.092857,45.273065 C115.8625,26.45387 101.451786,11.1455108 83.9607143,11.1455108 C72.5232143,11.1455108 62.1946429,17.4928793 56.3285714,28.1145511 L54.1375,32.0767802 L49.975,30.622291 C48.1964286,29.9981424 46.3589286,29.6804954 44.5160714,29.6804954 C36.2660714,29.6804954 28.9910714,35.9944272 27.2178571,44.6823529 L26.6714286,47.3294118 L24.3410714,48.5219814 C16.4714286,52.5622291 11.3928571,61.1665635 11.3928571,70.450774 C11.3928571,83.8421053 21.5071429,94.7368421 33.9357143,94.7368421 L92.3607143,94.6866873 L92.3607143,94.6866873 Z" id="Shape" fill="#B1D3EF"></path>
            </g>
            <g id="source5" transform="translate(324.000000, 177.000000)">
                <circle id="Oval" fill="#F9DD53" cx="123.317507" cy="42.7686757" r="42.5"></circle>
                <text id="農業產銷資料" font-family="PingFangTC-Semibold, PingFang TC" font-size="24" font-weight="500" fill="#4A4A4A">
                    <tspan x="64.9665423" y="50.3151751">農業產銷資料</tspan>
                </text>
                <rect id="Rectangle-path" fill="#E6E6E6" x="0.591439689" y="36.3268482" width="52.5152073" height="15.456863"></rect>
            </g>
            <g id="source4" transform="translate(311.000000, 269.000000)">
                <path d="M122.472133,114.868893 C107.037335,130.303691 82.5809569,131.213028 66.0812774,117.596904 C65.0403259,116.747392 64.0472343,115.838055 63.0780725,114.868893 C46.6741127,98.4649331 46.6741127,71.8668275 63.0780725,55.4628677 C71.3697896,47.1711506 82.269868,43.0671694 93.1460164,43.1628891 C103.770901,43.2586088 114.35989,47.36259 122.472133,55.4628677 C138.876093,71.8668275 138.876093,98.4649331 122.472133,114.868893 L122.472133,114.868893 Z" id="Shape" fill="#F9DD53"></path>
                <text id="農業資訊業者" font-family="PingFangTC-Semibold, PingFang TC" font-size="24" font-weight="500" fill="#4A4A4A">
                    <tspan x="23.1634241" y="78.6575875">農業資訊業者</tspan>
                    <tspan x="167.163424" y="78.6575875" font-family="Arial-BoldMT, Arial" font-weight="bold"></tspan>
                    <tspan x="47.1634241" y="111.657588">應用資料</tspan>
                </text>
                <rect id="Rectangle-path" fill="#E6E6E6" transform="translate(24.172264, 24.561665) rotate(225.000000) translate(-24.172264, -24.561665) " x="-2.08508817" y="16.8333075" width="52.5147037" height="15.4567148"></rect>
            </g>
            <g id="source3" transform="translate(169.000000, 292.000000)">
                <path d="M137,112.493947 C137,135.968523 117.98063,155 94.5060533,155 C91.1283293,155 87.8595642,154.612591 84.7118644,153.861985 C77.1815981,152.094431 70.4261501,148.317191 65.0266344,143.123487 C57,135.387409 52,124.527845 52,112.493947 C52,89.0193705 71.031477,70 94.5060533,70 C100.861985,70 106.891041,71.3922518 112.302663,73.8983051 C117.94431,76.5012107 122.90799,80.3026634 126.891041,84.9757869 C133.198547,92.3849879 137,101.997579 137,112.493947 L137,112.493947 Z" id="Shape" fill="#F9DD53"></path>
                <text id="農業相關研究資料" font-family="PingFangTC-Semibold, PingFang TC" font-size="24" font-weight="500" fill="#4A4A4A">
                    <tspan x="0.894941634" y="121.181051">農業相關研究資料</tspan>
                </text>
                <rect id="Rectangle-path" fill="#E6E6E6" x="86" y="5.30833484e-14" width="15.456863" height="52.5152073"></rect>
            </g>
            <g id="source2" transform="translate(64.000000, 267.000000)">
                <circle id="Oval" fill="#F9DD53" cx="70.4876452" cy="87.6606011" r="42.5"></circle>
                <text id="農業相關單位" font-family="PingFangTC-Semibold, PingFang TC" font-size="24" font-weight="500" fill="#4A4A4A">
                    <tspan x="0.0972762646" y="97.8560311">農業相關單位</tspan>
                </text>
                <rect id="Rectangle-path" fill="#E6E6E6" transform="translate(126.940408, 24.567236) rotate(225.000000) translate(-126.940408, -24.567236) " x="119.210408" y="-1.69569715" width="15.46" height="52.5258655"></rect>
            </g>
            <g id="source1" transform="translate(0.000000, 178.000000)">
                <circle id="Oval" fill="#F9DD53" cx="72.4416342" cy="42.7686757" r="42.5"></circle>
                <text id="農業感測資料" font-family="PingFangTC-Semibold, PingFang TC" font-size="24" font-weight="500" fill="#4A4A4A">
                    <tspan x="0" y="51.2490272">農業感測資料</tspan>
                </text>
                <rect id="Rectangle-path" fill="#E6E6E6" x="149.153039" y="35.7165168" width="52.5152073" height="15.456863"></rect>
            </g>
            <g id="database" transform="translate(224.000000, 186.000000)">
                <path d="M76.4247242,13.5418362 L76.4247242,13.5418362 C75.2717684,6.54662707 58.8007459,1 38.6421575,1 C18.4835691,1 2.01254665,6.54662707 0.859590851,13.5418362 L0.859590851,13.5418362 L0.78861546,13.5418362 L0.78861546,14.325701 L0.78861546,32.3545906 L0.78861546,33.1384553 L0.78861546,33.9223201 L0.78861546,51.1673449 L0.78861546,51.9512097 L0.78861546,52.7350744 L0.78861546,71.5478288 L0.859590851,71.5478288 C2.01254665,78.5414702 18.4851464,84.089665 38.6421575,84.089665 C58.7991687,84.089665 75.2717684,78.5414702 76.4247242,71.5478288 L76.4956996,71.5478288 L76.4956996,52.7350744 L76.4956996,51.9512097 L76.4956996,51.1673449 L76.4956996,33.9223201 L76.4956996,33.1384553 L76.4956996,32.3545906 L76.4956996,14.325701 L76.4956996,13.5418362 L76.4247242,13.5418362 L76.4247242,13.5418362 Z" id="Shape" fill="#424A60"></path>
                <g id="Group" transform="translate(0.000000, 51.167345)" fill="#424A60">
                    <path d="M38.6421575,14.1095658 C17.7359617,14.1095658 0.78861546,8.14278717 0.78861546,0.783864764 L0.78861546,20.3804839 L0.859590851,20.3804839 C2.01254665,27.3741253 18.4851464,32.9223201 38.6421575,32.9223201 C58.7991687,32.9223201 75.2717684,27.3741253 76.4247242,20.3804839 L76.4956996,20.3804839 L76.4956996,0.783864764 C76.4956996,8.14278717 59.5483534,14.1095658 38.6421575,14.1095658 L38.6421575,14.1095658 Z" id="Shape"></path>
                    <path id="Shape"></path>
                    <path id="Shape"></path>
                </g>
                <g id="Group" transform="translate(0.000000, 32.354591)" fill="#556080">
                    <path d="M38.6421575,14.1095658 C17.7359617,14.1095658 0.78861546,8.14278717 0.78861546,0.783864764 L0.78861546,20.3804839 L0.859590851,20.3804839 C2.01254665,27.3741253 18.4851464,32.9223201 38.6421575,32.9223201 C58.7991687,32.9223201 75.2717684,27.3741253 76.4247242,20.3804839 L76.4956996,20.3804839 L76.4956996,0.783864764 C76.4956996,8.14278717 59.5483534,14.1095658 38.6421575,14.1095658 L38.6421575,14.1095658 Z" id="Shape"></path>
                    <path id="Shape"></path>
                    <path id="Shape"></path>
                </g>
                <g id="Group" transform="translate(0.000000, 0.541836)">
                    <path d="M38.6421575,27.1095658 C17.7359617,27.1095658 0.78861546,21.1427872 0.78861546,13.7838648 L0.78861546,33.3804839 L0.859590851,33.3804839 C2.01254665,40.3741253 18.4851464,45.9223201 38.6421575,45.9223201 C58.7991687,45.9223201 75.2717684,40.3741253 76.4247242,33.3804839 L76.4956996,33.3804839 L76.4956996,13.7838648 C76.4956996,21.1427872 59.5483534,27.1095658 38.6421575,27.1095658 L38.6421575,27.1095658 Z" id="Shape" fill="#7383BF"></path>
                    <path id="Shape" fill="#7383BF"></path>
                    <path id="Shape" fill="#7383BF"></path>
                    <path d="M38.6421575,27.1095658 C42.9859558,27.1095658 47.158866,26.8519976 51.0443723,26.3778789 C65.8591213,24.5701478 76.4956996,19.6142853 76.4956996,13.7838648 C76.4956996,6.42428333 59.5480915,0.458163775 38.6421575,0.458163775 C17.7362235,0.458163775 0.78861546,6.42428333 0.78861546,13.7838648 C0.78861546,21.1434462 17.7362235,27.1095658 38.6421575,27.1095658 Z" id="Oval" fill="#7FABDA"></path>
                </g>
                <polygon id="Shape" fill="#F2F2F2" opacity="0.23" points="76.4956996 16 76.4956996 84.089665 46.284315 84.089665"></polygon>
                <polygon id="Shape" fill="#F2F2F2" opacity="0.23" points="31 1 0.78861546 59.9927814 0.78861546 1"></polygon>
            </g>
        </g>
    </g>
</svg>